HIERARCHY
ROOT Hips
{
	OFFSET 55.583401 -5.989124 85.817101
	CHANNELS 6 Xposition Yposition Zposition Xrotation Yrotation Zrotation
	JOINT spine
	{
		OFFSET 0.000000 -0.367608 6.392601
		CHANNELS 3 Xrotation Yrotation Zrotation
		JOINT spine1
		{
			OFFSET 0.000000 -0.000001 9.176109
			CHANNELS 3 Xrotation Yrotation Zrotation
			JOINT spine2
			{
				OFFSET 0.000000 -0.000001 8.792381
				CHANNELS 3 Xrotation Yrotation Zrotation
				JOINT Neck
				{
					OFFSET 0.000000 -1.076243 22.573700
					CHANNELS 3 Xrotation Yrotation Zrotation
					JOINT Head
					{
						OFFSET 0.000000 -0.000001 6.820114
						CHANNELS 3 Xrotation Yrotation Zrotation
						End Site
						{
							OFFSET 0.000000 5.444268 16.508499
						}
					}
				}
				JOINT RightShoulder
				{
					OFFSET -3.702209 0.515507 9.495087
					CHANNELS 3 Xrotation Yrotation Zrotation
					JOINT RightArm
					{
						OFFSET 0.000000 -0.000002 12.453705
						CHANNELS 3 Xrotation Yrotation Zrotation
						JOINT RightArmRoll
						{
							OFFSET 0.000000 -0.000001 6.286865
							CHANNELS 3 Xrotation Yrotation Zrotation
							JOINT RightForeArm
							{
								OFFSET 0.000000 -0.000003 18.311401
								CHANNELS 3 Xrotation Yrotation Zrotation
								JOINT RightForeArmRoll
								{
									OFFSET 0.000000 -0.000001 7.054825
									CHANNELS 3 Xrotation Yrotation Zrotation
									JOINT RightHand
									{
										OFFSET 0.000000 -0.000002 14.157501
										CHANNELS 3 Xrotation Yrotation Zrotation
										End Site
										{
											OFFSET 0.000000 0.000000 0.100006
										}
									}
								}
							}
						}
					}
				}
				JOINT LeftShoulder
				{
					OFFSET 3.702209 0.515507 9.495087
					CHANNELS 3 Xrotation Yrotation Zrotation
					JOINT LeftArm
					{
						OFFSET 0.000000 -0.000002 12.453705
						CHANNELS 3 Xrotation Yrotation Zrotation
						JOINT LeftArmRoll
						{
							OFFSET 0.000000 -0.000001 6.286865
							CHANNELS 3 Xrotation Yrotation Zrotation
							JOINT LeftForeArm
							{
								OFFSET 0.000000 -0.000003 18.311401
								CHANNELS 3 Xrotation Yrotation Zrotation
								JOINT LeftForeArmRoll
								{
									OFFSET 0.000000 -0.000001 7.054825
									CHANNELS 3 Xrotation Yrotation Zrotation
									JOINT LeftHand
									{
										OFFSET 0.000000 -0.000002 14.157501
										CHANNELS 3 Xrotation Yrotation Zrotation
										End Site
										{
											OFFSET 0.000000 0.000000 0.100006
										}
									}
								}
							}
						}
					}
				}
			}
		}
	}
	JOINT RightUpLeg
	{
		OFFSET -5.666161 0.871610 -1.039032
		CHANNELS 3 Xrotation Yrotation Zrotation
		JOINT RightUpLegRoll
		{
			OFFSET 0.000000 -0.000003 16.600502
			CHANNELS 3 Xrotation Yrotation Zrotation
			JOINT RightLeg
			{
				OFFSET 0.000000 0.000003 -20.557198
				CHANNELS 3 Xrotation Yrotation Zrotation
				JOINT RightLegRoll
				{
					OFFSET 0.000000 -0.000003 20.624397
					CHANNELS 3 Xrotation Yrotation Zrotation
					JOINT RightFoot
					{
						OFFSET 0.000000 -0.000003 17.166397
						CHANNELS 3 Xrotation Yrotation Zrotation
						JOINT RightToeBase
						{
							OFFSET 0.000000 -0.000002 14.350204
							CHANNELS 3 Xrotation Yrotation Zrotation
							End Site
							{
								OFFSET 0.006081 0.801060 6.949707
							}
						}
					}
				}
			}
		}
	}
	JOINT LeftUpLeg
	{
		OFFSET 5.666161 0.871610 -1.039032
		CHANNELS 3 Xrotation Yrotation Zrotation
		JOINT LeftUpLegRoll
		{
			OFFSET 0.000000 -0.000003 16.600601
			CHANNELS 3 Xrotation Yrotation Zrotation
			JOINT LeftLeg
			{
				OFFSET 0.000000 -0.000003 20.557098
				CHANNELS 3 Xrotation Yrotation Zrotation
				JOINT LeftLegRoll
				{
					OFFSET 0.000000 -0.000003 20.815102
					CHANNELS 3 Xrotation Yrotation Zrotation
					JOINT LeftFoot
					{
						OFFSET 0.000000 -0.000003 16.975693
						CHANNELS 3 Xrotation Yrotation Zrotation
						JOINT LeftToeBase
						{
							OFFSET 0.000000 -0.000002 14.350204
							CHANNELS 3 Xrotation Yrotation Zrotation
							End Site
							{
								OFFSET -0.027260 0.801060 6.949707
							}
						}
					}
				}
			}
		}
	}
}
MOTION
Frames: 8
Frame Time: 0.041667
55.130993 -5.846135 85.650200 -7.536636 3.282094 -1.093164 -0.685945 -0.261783 -0.162441 2.630202 -0.527930 -0.327212 4.275315 -0.531792 -0.321478 10.132961 -1.000452 1.498101 10.290410 4.899718 0.752344 5.619020 -53.755406 7.452728 -41.872106 -129.106380 -99.132717 -0.000001 -0.000000 -0.000003 111.214591 10.849797 -24.393792 0.000008 0.000001 -2.999997 -5.000222 -7.998717 0.000180 -2.044746 48.300079 1.125260 -47.175485 129.428670 76.329932 -0.000001 0.000002 -0.000001 103.475768 -3.186955 12.041615 -0.000005 -0.000004 3.000001 -5.000231 7.998830 -0.000162 5.032571 -178.034591 0.185173 -179.999991 0.000005 -1.178995 174.381355 -2.862203 -0.534462 -0.000000 -0.000003 0.043794 68.629932 6.910960 2.125698 25.456860 -7.355624 -0.000003 4.440129 170.674584 -3.445000 -0.000005 -0.000005 -1.021700 -10.865706 1.383228 0.851416 0.000002 -0.000001 -0.068931 71.475539 -6.000528 -4.411436 25.457872 7.355621 -0.001456 
55.123894 -5.843502 85.668999 -7.506356 3.287339 -1.087478 -0.694726 -0.261749 -0.160273 2.612651 -0.527428 -0.323289 4.257763 -0.531245 -0.317577 10.230834 -1.049390 1.496096 10.138617 4.943903 0.754026 5.338504 -53.778748 7.112801 -41.919115 -129.122595 -99.353967 -0.000000 -0.000000 -0.000004 111.100923 10.878941 -24.360112 0.000009 -0.000001 -3.000002 -5.000221 -7.998712 0.000181 -2.063999 48.282327 1.146975 -47.097347 129.353975 76.275229 -0.000001 -0.000000 0.000002 103.421119 -3.181876 12.035465 -0.000006 -0.000006 3.000002 -5.000233 7.998824 -0.000160 5.001723 -178.040492 0.176603 -179.999991 0.000005 -1.177998 174.380795 -2.862199 -0.534490 -0.000000 -0.000003 0.043789 68.628976 6.910931 2.125753 25.456863 -7.355623 -0.000003 4.400451 170.672084 -3.433923 -0.000005 -0.000005 -1.022080 -10.852987 1.379889 0.850937 0.000001 -0.000001 -0.068897 71.456415 -6.004718 -4.400152 25.457869 7.355622 -0.001455 
55.134094 -5.829866 85.668701 -7.473997 3.292401 -1.081342 -0.704302 -0.261537 -0.158003 2.593509 -0.526518 -0.319196 4.238621 -0.530288 -0.313488 10.335037 -1.102975 1.493308 9.983380 4.991927 0.755003 5.055933 -53.803114 6.770062 -41.976676 -129.144616 -99.589383 0.000001 -0.000000 -0.000004 110.975793 10.907249 -24.317065 0.000009 0.000002 -2.999999 -5.000220 -7.998715 0.000180 -2.072602 48.262076 1.154948 -47.015252 129.280755 76.200985 0.000001 0.000003 0.000003 103.366662 -3.175070 12.024124 -0.000005 -0.000006 2.999998 -5.000233 7.998823 -0.000161 4.968746 -178.047350 0.167600 -179.999991 0.000005 -1.177998 174.380112 -2.861204 -0.534426 -0.000000 -0.000003 0.043784 68.627924 6.910933 2.125821 25.456863 -7.355625 -0.000003 4.358416 170.669584 -3.421758 -0.000004 -0.000005 -1.022520 -10.838466 1.376342 0.850363 0.000001 -0.000001 -0.068864 71.435535 -6.009342 -4.387633 25.457870 7.355622 -0.001456 
55.144592 -5.824394 85.667198 -7.440216 3.297216 -1.074917 -0.714476 -0.261164 -0.155683 2.573179 -0.525247 -0.315018 4.218280 -0.528970 -0.309303 10.443963 -1.159895 1.489995 9.826858 5.042668 0.755471 4.774679 -53.827659 6.428713 -42.042809 -129.169355 -99.834758 0.000000 -0.000000 -0.000005 110.842864 10.935017 -24.268091 0.000008 -0.000002 -3.000004 -5.000222 -7.998712 0.000179 -2.072128 48.240386 1.151316 -46.929513 129.209270 76.108723 -0.000003 0.000000 0.000000 103.312676 -3.166634 12.009631 -0.000008 -0.000006 3.000000 -5.000232 7.998823 -0.000164 4.934265 -178.054221 0.158421 -179.999991 0.000006 -1.177998 174.379415 -2.861201 -0.534462 0.000000 -0.000003 0.043780 68.626858 6.910899 2.125880 25.456861 -7.355622 -0.000003 4.314835 170.667071 -3.408790 -0.000005 -0.000005 -1.023010 -10.822443 1.372703 0.849713 0.000001 -0.000001 -0.068831 71.413282 -6.014280 -4.374444 25.457869 7.355621 -0.001455 
55.152092 -5.873564 85.675697 -7.405671 3.301699 -1.068306 -0.725049 -0.260644 -0.153363 2.552048 -0.523667 -0.310839 4.197147 -0.527342 -0.305109 10.555918 -1.218855 1.486393 9.671299 5.094999 0.755614 4.498147 -53.851547 6.092959 -42.115339 -129.193698 -100.085931 -0.000001 0.000000 -0.000005 110.706062 10.961802 -24.215493 0.000009 0.000001 -2.999997 -5.000220 -7.998713 0.000181 -2.064194 48.218322 1.138255 -46.843046 129.137553 76.003203 0.000000 0.000000 0.000003 103.259619 -3.156926 11.991019 -0.000008 -0.000006 2.999999 -5.000230 7.998822 -0.000162 4.898935 -178.060108 0.149316 -179.999991 0.000006 -1.177997 174.378609 -2.860204 -0.534404 0.000000 -0.000003 0.043775 68.625697 6.910893 2.125851 25.456863 -7.355621 -0.000004 4.270490 170.666538 -3.395200 -0.000005 -0.000005 -1.023550 -10.805623 1.369075 0.849012 0.000000 -0.000001 -0.068797 71.390257 -6.019454 -4.360733 25.457865 7.355621 -0.001455 
55.159893 -5.857683 85.665794 -7.370986 3.305776 -1.061661 -0.735822 -0.259994 -0.151091 2.530514 -0.521823 -0.306745 4.175617 -0.525450 -0.300994 10.669089 -1.278566 1.482721 9.518891 5.147785 0.755619 4.229769 -53.874019 5.767065 -42.191055 -129.216196 -100.336961 -0.000000 0.000000 -0.000005 110.569145 10.987237 -24.163597 0.000008 0.000001 -3.000003 -5.000223 -7.998713 0.000181 -2.050385 48.197066 1.117915 -46.757149 129.065126 75.887063 -0.000001 0.000003 0.000003 103.207860 -3.146541 11.969373 -0.000006 -0.000007 3.000002 -5.000230 7.998826 -0.000162 4.863408 -178.065982 0.140369 -179.999991 0.000005 -1.177998 174.377776 -2.859207 -0.534348 -0.000000 -0.000003 0.043771 68.624529 6.910853 2.126016 25.456865 -7.355622 -0.000003 4.226249 170.664994 -3.381498 -0.000004 -0.000005 -1.024110 -10.788502 1.365560 0.848279 0.000000 -0.000001 -0.068763 71.367240 -6.024653 -4.346933 25.457869 7.355622 -0.001455 
55.147392 -5.857534 85.670502 -7.336826 3.309383 -1.055090 -0.746594 -0.259231 -0.148919 2.508974 -0.519764 -0.302820 4.154084 -0.523346 -0.297046 10.781773 -1.337720 1.479178 9.371843 5.199878 0.755623 3.973016 -53.894393 5.455322 -42.269032 -129.233162 -100.585061 -0.000001 0.000001 -0.000002 110.435444 11.012083 -24.110824 0.000012 0.000003 -3.000001 -5.000219 -7.998713 0.000181 -2.032293 48.177586 1.092447 -46.673702 128.990691 75.763819 0.000000 -0.000000 0.000003 103.157822 -3.135324 11.946682 -0.000006 -0.000006 3.000001 -5.000230 7.998824 -0.000164 4.828323 -178.070859 0.131830 -179.999991 0.000005 -1.177000 174.376915 -2.859203 -0.534390 -0.000000 -0.000003 0.043766 68.623457 6.910820 2.126076 25.456861 -7.355622 -0.000004 4.182865 170.665500 -3.367748 -0.000004 -0.000004 -1.024680 -10.771380 1.362257 0.847531 0.000001 -0.000001 -0.068730 71.344625 -6.029797 -4.333401 25.457870 7.355620 -0.001456 
55.155693 -5.861804 85.665390 -7.303818 3.312435 -1.048736 -0.757169 -0.258369 -0.146896 2.487833 -0.517537 -0.299152 4.132941 -0.521076 -0.293355 10.892168 -1.394998 1.475947 9.232365 5.250149 0.755745 3.731386 -53.912141 5.162073 -42.347057 -129.242479 -100.825388 -0.000001 -0.000001 -0.000004 110.308983 11.035797 -24.062543 0.000009 0.000002 -3.000001 -5.000221 -7.998713 0.000179 -2.011478 48.160951 1.063971 -46.593129 128.914397 75.634981 -0.000001 0.000004 0.000005 103.109792 -3.123866 11.922040 -0.000005 -0.000006 3.000001 -5.000230 7.998823 -0.000163 4.794340 -178.075749 0.123783 -179.999991 0.000005 -1.177001 174.376068 -2.858193 -0.535331 -0.000000 -0.000003 0.043761 68.622412 6.910821 2.126043 25.456865 -7.355625 -0.000003 4.141206 170.665022 -3.354501 -0.000004 -0.000005 -1.025250 -10.754964 1.359276 0.846791 0.000001 -0.000001 -0.068696 71.323028 -6.034795 -4.320394 25.457867 7.355623 -0.001456 
